<?xml version="1.0" encoding="utf-8"?>
<!-- Generator: Adobe Illustrator 27.2.0, SVG Export Plug-In . SVG Version: 6.00 Build 0)  -->
<svg version="1.1" id="Layer_1" xmlns="http://www.w3.org/2000/svg" xmlns:xlink="http://www.w3.org/1999/xlink" x="0px" y="0px"
	 viewBox="0 0 335.4 349.9" style="enable-background:new 0 0 335.4 349.9;" xml:space="preserve">
<style type="text/css">
	.st0{fill:#241F21;}
</style>
<g id="J65iEM.tif">
	<path class="st0" d="M296.1,152.3c-0.7-5.8-1.8-11.3-4.8-16.3c-3.3-5.5-7.2-10.2-12.6-12.8c-4.8-2.3-9.9-4.5-15.1-5.4
		c-5.9-0.9-12-0.8-17.9-0.3c-4.1,0.3-8.2,1.7-12.2,3.1c-8.1,2.8-15.1,8.1-22.1,13.6c-6.5,5.1-12.9,10.4-19.6,15.3
		c-5.3,3.9-11.2,5.8-17.4,6.3c-1.6,0.1-2.3-0.5-2.1-2.4c0.8-7.4,3-14.5,5.8-21.3c0.8-1.9,1.4-3.9,2.6-5.6
		c4.6-6.6,9.4-13.1,14.1-19.6c3.7-5,7.4-9.9,11.2-14.8c6.2-8.1,9.9-17.3,10-27.8c0-6.2-0.1-12.4-2.5-18.3c-1.9-4.9-3.6-9.7-6.5-14
		c-4.4-6.5-16.9-13.3-16.9-13.3l-20.9-2.6c0,0-20.5,0.2-27.2,9.1c-2.5,1.8-5.1,3.8-7,6.3c-3.2,3.9-8.7,12.5-8.7,12.5l-4.4,16.3
		c0,0-1.3,6.7,1.4,20.1c2.5,9.1,7.8,16.1,13,23.2c4.2,5.8,8.5,11.6,12.3,17.6c3.2,5,6.8,10,8.5,15.8c1.7,5.7,1.6,12.2,1.8,18.4
		c0.1,2-1.6,2.2-3.1,1.6c-3.4-1.4-6.7-3-10.1-4.2c-8.2-2.8-14.7-8.7-21-14.7c-6.5-6.2-13.6-11-21.8-13.9c-10.3-3.6-21-4.7-32-3.1
		c-8.2,1.2-15.5,4.3-22.1,10.2c-8.1,7.2-12.4,16.6-13.4,27.7c-0.9,9.6,0.3,18.8,4.7,27.1c3,5.6,6.7,10.3,11.4,14.3
		c6.8,5.7,14.7,7.5,22.8,8.4c7.4,0.8,14.9,0.1,22.3-2.2c8.4-2.6,16.2-6.7,23.4-12.4c6.9-5.4,13.4-11.6,20.1-17.3
		c5.5-4.7,18.2-6.5,18.2-6.5c0.1,6.1-0.2,14.1-0.6,21.1c-0.3,4.5-0.6,9.1-1.7,13.4c-2.5,8.7-3.8,17.8-8.1,26
		c-2.5,4.8-4.5,9.9-6.8,14.8c-5.1,10.6-11.5,20.2-19,29.1c-4.2,4.9-8.1,10.2-12.1,15.2c0.3,0,0.7,0.1,1.2,0
		c5.2-1.4,10.3-3.2,15.5-4.3c9.9-2.1,19.6-5.2,29.7-6.2c7.8-0.8,15.5-0.4,23.1,0.6c9.7,1.3,19.3,3.8,28.9,5.8c1.6,0.3,3.3,0.3,5,0.5
		l0.4-0.6c-1.9-2.2-4-4.3-5.8-6.8c-4-5.6-8.2-11.1-11.7-17.1c-4.2-7.2-7.8-14.8-11.2-22.5c-2.6-5.8-4.7-11.9-6.3-18.1
		c-2.1-8.1-3.5-16.4-5-24.7c-0.7-3.7-0.7-7.5-0.9-11.4c-0.2-4.1-0.5-13.2-0.7-16.8c0.1,0.2,0.2,0.3,0.4,0.5c0.1,0,0.1,0,0.2,0
		c0,0,0-0.1,0-0.1h0.9h0.2c0.1,0,0.3,0,0.5,0c-0.1,0-0.2,0-0.3,0c-0.2,0-0.3,0-0.5,0c-0.2,0-0.9,0-0.1,0c-0.2,0-0.4,0-0.7,0
		c0,0-0.2,0-0.1,0c0.4-0.1,0.9,0,1.4,0c1.8,0,3.6,0,5.3,0.5c0.5,0.1,1,0.3,1.5,0.6c0.3,0.1,0.6,0.2,0.9,0.4c0.6,0.4,1.1,0.9,1.7,1.3
		c0.4,0.2,0.8,0.5,1.2,0.8c7.7,3.3,14.8,8.1,21.9,12.8c8.1,5.3,16.3,10.8,24.7,15.6c5.1,3,10.9,4.5,17,4.2c4.2-0.1,8.4,0,12.4-0.9
		c5-1.2,9.9-3.1,14.6-5.5c3.1-1.5,5.9-4.3,8.8-6.6c4.3-3.4,7.2-8.2,9.1-13.4C296,170.1,297.3,161.4,296.1,152.3L296.1,152.3z"/>
</g>
</svg>
