<svg width="70" height="70" viewBox="0 0 70 70" fill="none" xmlns="http://www.w3.org/2000/svg">
<g clip-path="url(#clip0_1_2)">
<path d="M43.1142 9.19623C42.4404 9.25456 41.7375 9.31289 41.0638 9.40039C38.1891 9.72042 35.3931 10.5438 32.8038 11.8329C30.1345 13.1396 27.708 14.8924 25.6288 17.0158C25.5413 17.1325 25.3663 17.1908 25.2175 17.1616C23.7736 16.947 22.3118 16.8786 20.8542 16.9575C17.881 17.1036 14.9698 17.8612 12.3025 19.1829C7.14585 21.7612 3.5146 25.7746 1.40585 31.1646C0.636478 33.1619 0.181897 35.2665 0.0583486 37.4033C0.0583486 37.5491 0.0291819 37.6658 1.52588e-05 37.7825V40.0371C0.0583486 40.6233 0.145849 41.1804 0.204182 41.7666C0.495849 44.1379 1.17252 46.4216 2.2546 48.5625C4.65793 53.3633 8.34751 56.8779 13.2971 59.045C15.5574 60.0415 17.9771 60.6272 20.4429 60.7746C20.5363 60.7746 20.6179 60.7862 20.6938 60.8037H45.7071C46.2408 60.7541 46.7629 60.7016 47.3025 60.6287C50.1576 60.3082 52.9333 59.4846 55.5013 58.1962C59.8869 56.0556 63.5746 52.7138 66.1354 48.5596C67.8891 45.8191 69.0642 42.7493 69.5888 39.5383C69.7346 38.5466 69.8221 37.52 69.9417 36.5225C69.9417 36.3766 69.9708 36.26 70 36.1433V33.8275C69.9417 33.1566 69.8542 32.5091 69.8542 31.8966C69.5339 29.0406 68.7104 26.2638 67.4217 23.695C65.2495 19.3132 61.8902 15.6296 57.7267 13.0637C55.0005 11.3312 51.9532 10.1657 48.7667 9.63664C47.7108 9.46164 46.6871 9.37414 45.6313 9.25748C45.4854 9.25748 45.3688 9.22831 45.2229 9.19914L43.1142 9.19623ZM44.1904 14.1341C50.3913 14.1487 55.6529 16.5433 59.9258 21.2946C62.3452 24.0391 63.9742 27.3889 64.6392 30.9866C65.0767 33.215 65.1671 35.4987 64.8433 37.7533C64.2892 41.6791 62.7958 45.1908 60.2467 48.2679C57.2847 51.9043 53.1733 54.4244 48.5888 55.4137C46.1366 55.9505 43.6087 56.0493 41.1221 55.7054C37.9283 55.2971 35 54.2441 32.3633 52.3396C31.6638 51.8391 31.0081 51.28 30.4033 50.6683C26.8275 47.1537 23.2867 43.61 19.7108 40.0954C18.8329 39.2204 18.7746 38.2521 19.1858 37.3712C19.4009 36.901 19.7621 36.5129 20.2157 36.2648C20.6694 36.0167 21.191 35.9219 21.7029 35.9946C22.3154 36.0529 22.7879 36.4058 23.2254 36.8462C26.4483 40.0954 29.6421 43.2891 32.8621 46.5412C35.2797 49.0067 38.458 50.5851 41.8833 51.0212C47.565 51.7825 52.3979 50.0266 56.2333 45.7771C58.3129 43.4641 59.5729 40.6816 60.1009 37.5783C60.8592 32.9496 59.78 28.7904 56.9071 25.13C54.3608 21.8779 51.0213 19.8566 46.9788 19.1246C42.8488 18.3954 38.955 19.1829 35.4113 21.4404C35.3238 21.4987 35.1196 21.5279 35.0292 21.4696C33.7408 20.5164 32.3682 19.6826 30.9283 18.9787C30.9283 18.9787 30.8992 18.9496 30.87 18.8912C31.995 17.9546 33.223 17.1492 34.5304 16.4908C36.9102 15.1989 39.5342 14.42 42.2333 14.2041C42.8836 14.155 43.5355 14.1316 44.1875 14.1341H44.1904ZM22.0092 21.9012C26.2529 21.8312 30.1496 23.4325 33.6233 26.6554C36.1142 28.9946 38.3979 31.4271 40.7983 33.8596C41.4721 34.5304 41.6179 35.3821 41.2971 36.2891C40.9763 37.1962 40.2413 37.6366 39.305 37.7825C38.9664 37.8286 38.6216 37.7917 38.3005 37.6748C37.9793 37.5579 37.6914 37.3646 37.4617 37.1116C35.175 34.825 32.8913 32.5704 30.6367 30.2575C28.7904 28.3529 26.5942 27.2679 24.0158 26.7983C18.305 25.7746 12.5358 29.085 10.4854 34.5012C7.84876 41.3846 12.0079 49.175 19.1829 50.8171C20.5888 51.1379 22.085 51.1379 23.5492 51.1087C23.9575 51.0796 24.1908 51.2254 24.4825 51.4879C25.8913 52.8675 27.3846 54.2441 28.8488 55.6179C28.9363 55.7054 29.0529 55.7929 29.1404 55.8804C28.9654 55.8804 28.8488 55.9096 28.7321 55.9096H22.0238C18.1533 55.9088 14.3988 54.5883 11.38 52.166C8.3612 49.7438 6.25857 46.3646 5.41918 42.5862C3.5146 34.0054 8.43501 25.305 16.87 22.7587C18.5339 22.2314 20.2642 21.9427 22.0092 21.9012Z" fill="#F1F1F1"/>
</g>
<defs>
<clipPath id="clip0_1_2">
<rect width="70" height="70" fill="white"/>
</clipPath>
</defs>
</svg>
