<svg width="70" height="70" viewBox="0 0 70 70" fill="none" xmlns="http://www.w3.org/2000/svg">
<g clip-path="url(#clip0_1_4)">
<rect width="70" height="70" fill="#1E1E1E"/>
<path d="M15.5391 0.139432C16.3904 -0.16878 17.3431 0.0432868 17.9834 0.683484L27.6838 10.3839C27.6283 10.4685 27.5777 10.5577 27.5324 10.6512L10.1511 46.6127L15.5391 0.139432Z" fill="#F1F1F1"/>
<path d="M10.5552 55.7209L33.7996 69.6677C34.4248 70.0429 35.1896 70.1041 35.8666 69.8329L59.2 60.4996C60.1739 60.1104 60.7684 59.1183 60.6522 58.0757L55.9855 16.0757C55.8894 15.2088 55.3178 14.468 54.5034 14.1552C53.6891 13.8424 52.7683 14.0099 52.1164 14.5894L44.3929 21.4549L10.5552 55.7209Z" fill="#F1F1F1"/>
<path d="M41.7121 17.528L36.9416 10.3723C36.4902 9.69531 35.7188 9.30233 34.9058 9.33523C34.0927 9.36813 33.3556 9.82219 32.9604 10.5335L31.5148 13.1357L17.5806 41.9649L41.7121 17.528Z" fill="#F1F1F1"/>
</g>
<defs>
<clipPath id="clip0_1_4">
<rect width="70" height="70" fill="white"/>
</clipPath>
</defs>
</svg>
