<svg width="495" height="547" viewBox="0 0 495 547" fill="none" xmlns="http://www.w3.org/2000/svg">
<g filter="url(#filter0_d_1_48)">
<g clip-path="url(#clip0_1_48)">
<g clip-path="url(#clip1_1_48)">
<g clip-path="url(#clip2_1_48)">
<path d="M255.518 519.849L114.594 480.727L82.9907 126.262H428.478L396.841 480.67L255.518 519.849Z" stroke="black" stroke-width="8"/>
<path fill-rule="evenodd" clip-rule="evenodd" d="M346.493 422.08L347.16 414.588L357.581 297.839L358.663 285.931H197.053L193 240.52H255.658H362.556L363.588 230.552L365.608 208.07L366.669 196.173H255.658H144.535L145.597 208.07L156.496 330.276H255.734H310.188L305.041 387.79L255.726 401.1L206.151 387.818L202.994 352.45H178.995H158.478L164.69 422.08L255.53 447.298L346.493 422.08Z" fill="black"/>
<path fill-rule="evenodd" clip-rule="evenodd" d="M111.576 24H134.112V46.2656H154.728V24H177.265V91.4258H154.729V68.8477H134.113V91.4258H111.577V24H111.576Z" fill="black"/>
<path fill-rule="evenodd" clip-rule="evenodd" d="M206.9 46.3594H187.061V24H249.287V46.3594H229.438V91.4258H206.901V46.3594H206.9Z" fill="black"/>
<path fill-rule="evenodd" clip-rule="evenodd" d="M259.163 24H282.662L297.117 47.6914L311.558 24H335.065V91.4258H312.622V58.0059L297.117 81.9795H296.729L281.214 58.0059V91.4258H259.163V24H259.163Z" fill="black"/>
<path fill-rule="evenodd" clip-rule="evenodd" d="M346.281 24H368.824V69.1387H400.517V91.4258H346.281V24V24Z" fill="black"/>
</g>
</g>
</g>
</g>
<defs>
<filter id="filter0_d_1_48" x="-4" y="0" width="503" height="555" filterUnits="userSpaceOnUse" color-interpolation-filters="sRGB">
<feFlood flood-opacity="0" result="BackgroundImageFix"/>
<feColorMatrix in="SourceAlpha" type="matrix" values="0 0 0 0 0 0 0 0 0 0 0 0 0 0 0 0 0 0 127 0" result="hardAlpha"/>
<feOffset dy="4"/>
<feGaussianBlur stdDeviation="2"/>
<feComposite in2="hardAlpha" operator="out"/>
<feColorMatrix type="matrix" values="0 0 0 0 0 0 0 0 0 0 0 0 0 0 0 0 0 0 0.25 0"/>
<feBlend mode="normal" in2="BackgroundImageFix" result="effect1_dropShadow_1_48"/>
<feBlend mode="normal" in="SourceGraphic" in2="effect1_dropShadow_1_48" result="shape"/>
</filter>
<clipPath id="clip0_1_48">
<rect width="355" height="500" fill="white" transform="translate(78 24)"/>
</clipPath>
<clipPath id="clip1_1_48">
<rect width="355" height="500" fill="white" transform="translate(78 24)"/>
</clipPath>
<clipPath id="clip2_1_48">
<rect width="355" height="500" fill="white" transform="translate(78 24)"/>
</clipPath>
</defs>
</svg>
