<svg width="52" height="52" viewBox="0 0 52 52" fill="none" xmlns="http://www.w3.org/2000/svg">
<path fill-rule="evenodd" clip-rule="evenodd" d="M14.4246 42.3903L18.1613 40.1289C18.8822 41.4071 19.538 42.4885 21.1109 42.4885C22.6187 42.4885 23.5693 41.8987 23.5693 39.6045V24.0028H28.1579V39.6694C28.1579 44.422 25.3721 46.5852 21.3076 46.5852C17.6369 46.5852 15.5061 44.6841 14.4246 42.3899" fill="black"/>
<path fill-rule="evenodd" clip-rule="evenodd" d="M30.6504 41.8986L34.3866 39.7354C35.3701 41.3416 36.6484 42.5214 38.9099 42.5214C40.8111 42.5214 42.0235 41.5708 42.0235 40.2597C42.0235 38.6865 40.7781 38.1292 38.6804 37.2118L37.5335 36.7198C34.2229 35.3107 32.0268 33.5408 32.0268 29.8042C32.0268 26.3626 34.6489 23.7404 38.7461 23.7404C41.6632 23.7404 43.7609 24.7566 45.2684 27.4115L41.6958 29.7057C40.9091 28.2965 40.0572 27.7394 38.7462 27.7394C37.4023 27.7394 36.5501 28.5915 36.5501 29.7057C36.5501 31.0824 37.4023 31.6397 39.3687 32.492L40.5158 32.9836C44.4162 34.6553 46.6123 36.3595 46.6123 40.1942C46.6123 44.3243 43.3675 46.5856 39.0083 46.5856C34.7474 46.5856 31.9941 44.5536 30.6505 41.8986" fill="black"/>
<rect x="1" y="1" width="50" height="50" stroke="black" stroke-miterlimit="0" stroke-linejoin="bevel"/>
</svg>
