<svg width="475" height="506" viewBox="0 0 475 506" fill="none" xmlns="http://www.w3.org/2000/svg">
<g clip-path="url(#clip0_1_85)">
<mask id="path-1-inside-1_1_85" fill="white">
<path fill-rule="evenodd" clip-rule="evenodd" d="M172.249 311.509C164.314 316.472 152.358 324.511 143.109 333.255C127.925 347.595 124.747 367.486 132.758 372.132C140.167 376.427 157.466 371.317 169.846 357.813C182.84 343.636 188.198 325.663 182.664 305.26C182.014 305.648 181.375 306.037 180.749 306.398L180.763 306.426L179.923 306.902C176.693 308.83 174.053 310.421 172.249 311.509ZM395.237 305.073C390.742 314.84 390.517 317.984 391.882 318.962C398.404 316.619 409.195 310.972 409.28 295.84C409.294 293.574 408.794 291.142 407.991 288.602C401.019 294.776 397 301.24 395.237 305.073ZM465.22 275.538C447.797 273.508 434.201 275.951 423.65 280.347C425.604 285.433 427.106 290.73 427.317 296.066C427.807 307.777 419.746 316.445 411.345 322.632C406.439 326.24 401.218 328.644 396.836 330.096C393.333 331.574 388.676 333.102 385.37 332.427C378.084 330.946 374.205 324.474 379.162 310.195C381.84 302.468 389.563 290.706 402.031 280.574C399.189 274.724 396.022 268.764 394.408 263.288C391.227 252.492 390.266 245.967 390.266 245.967C390.266 245.967 379.99 267.272 366.732 286.648C365.968 287.774 365.205 288.878 364.44 289.979C367.044 296.03 369.096 302.429 369.374 308.881C369.862 320.591 364.792 329.446 356.379 335.62C351.824 338.979 346.966 341.298 342.797 342.774C340.131 343.938 334.71 345.852 327 346.368C322.783 346.656 318.727 346.395 316.462 344.678C313.345 342.323 312.969 339.417 314.584 335.446C315.949 332.076 326.162 320.417 334.725 310.209C337.09 307.39 339.343 304.509 341.358 301.842L341.309 301.728C341.309 301.73 342.86 299.726 345.377 296.231C342.247 289.492 338.28 282.477 336.415 276.115C333.234 265.32 332.271 258.793 332.271 258.793C332.271 258.793 321.855 285.497 311.003 306.815C302.606 323.325 296.997 333.33 294.469 337.714L294.444 337.89C294.444 337.89 294.067 338.53 293.416 339.532L292.93 340.344L292.916 340.269C290.099 344.429 283.778 352.581 277.495 352.581C260.246 352.581 266.578 317.549 266.578 317.549C266.578 317.549 261.536 330.525 255.852 341.66C251.222 350.74 247.003 358.433 237.778 358.433C235.125 358.433 230.918 358.356 227.425 355.035C219.502 347.508 213.444 328.393 214.631 313.59C215.645 301.003 217.585 292.284 220.239 285.009C215.507 287.588 210.038 290.646 204.468 293.916L195.904 298.962L196.181 299.463C203.265 313.166 205.155 343.189 189.708 366.235C174.263 389.293 145.51 403.322 117.497 395.532C108.457 393.013 94.8021 374.313 106.58 348.248C116.969 325.264 158.49 303.533 169.432 298.11L172.435 296.456C150.619 277.368 96.1416 251.617 88.5068 212.062C86.3532 200.927 91.5734 174.299 124.268 143.689C151.768 117.95 190.022 98.2346 225.36 85.6715C284.729 64.5674 347.456 77.0162 357.106 114.868C366.594 152.093 334.3 196.62 292.942 212.627C256.015 226.917 225.485 224.651 212.942 220.532C198.684 215.847 190.323 206.439 188.283 201.129C187.481 199.05 186.102 195.557 188.283 194.354C189.621 193.615 190.159 193.791 193.739 197.748C197.145 201.506 210.838 211.59 236.85 208.67C305.109 201.018 346.227 147.948 333.234 119.39C324.135 99.4002 271.524 90.3814 205.794 123.16C125.556 163.165 121.201 196.144 120.514 208.67C118.635 243.125 163.009 261.25 187.019 286.875L187.944 287.89C192.437 285.41 197.183 282.793 201.838 280.238C213.944 273.586 225.36 267.347 230.679 264.441C239.13 252.158 256.276 238.603 268.657 238.603C288.447 238.603 281.65 267.049 281.65 267.049C281.65 267.049 282.051 265.747 282.589 265.735C283.152 265.719 285.331 261.987 291.44 264.216C297.724 266.521 296.295 270.931 296.334 271.381C296.41 272.257 288.911 297.545 285.795 313.765C284.304 321.506 285.167 327.144 285.608 327.144C286.22 327.144 287.473 325.177 288.637 323.061L288.611 322.997C288.611 322.997 289.486 321.395 290.952 318.514L291.241 317.912L291.253 317.939C292.981 314.557 295.408 309.584 298.212 303.422C303.706 291.311 324.672 244.554 326.451 239.381C328.227 234.209 329.154 228.861 330.031 226.567C330.894 224.276 338.305 222.547 346.966 222.61C355.628 222.673 356.507 226.368 356.567 227.132C356.63 227.895 352.449 238.154 351.485 245.405C350.534 252.658 351.449 256.276 352.237 262.364C352.751 266.346 355.241 271.395 358.184 277.119C367.147 262.463 382.916 234.433 384.432 226.579C385.469 221.207 387.135 216.059 388.012 213.765C388.887 211.474 396.287 209.747 404.947 209.808C413.609 209.871 414.485 213.566 414.548 214.33C414.611 215.095 410.416 225.352 409.466 232.605C408.514 239.844 409.43 243.477 410.217 249.564C410.894 254.774 414.923 261.776 418.918 269.74C429.819 264.366 442.65 260.76 457.672 260.685C463.892 260.649 471.116 261.274 474.846 262.438V142.61C474.846 134.156 470.514 126.366 463.193 122.146L267.72 9.16638C260.411 4.94454 251.461 4.94454 244.15 9.16638L49.2167 122.091C41.9061 126.313 38 134.117 38 142.557V368.613C38 377.054 41.93 384.858 49.2287 389.078L244.476 502.091C251.785 506.327 260.648 506.327 267.957 502.091L463.294 389.078C470.602 384.844 474.86 377.052 474.86 368.613V277.255C472.381 276.525 468.751 275.95 465.22 275.538ZM254.927 263.701C250.734 268.397 243.587 280.508 240.244 290.644C233.597 310.77 236.476 331.224 241.183 332.453C246.677 333.892 255.691 306.989 260.007 296.467C262.712 289.878 273.227 260.634 270.923 256.726C269.125 253.67 261.674 256.137 254.927 263.701ZM330.973 331.537C330.973 331.537 329.647 332.791 330.22 333.141C330.997 333.605 332.674 333.003 334.502 332.05C339.672 328.796 351.275 320.678 351.3 308.666C351.3 308.317 351.287 307.979 351.263 307.615C348.572 311.148 346.092 314.291 343.952 316.958C340.297 321.504 330.973 331.537 330.973 331.537Z"/>
</mask>
<path d="M143.109 333.255L148.602 339.071L148.605 339.069L143.109 333.255ZM132.758 372.132L128.743 379.052L128.746 379.053L132.758 372.132ZM169.846 357.813L175.743 363.22L175.744 363.218L169.846 357.813ZM182.664 305.26L190.385 303.166L187.625 292.992L178.569 298.388L182.664 305.26ZM180.749 306.398L176.748 299.471L170.225 303.239L173.594 309.976L180.749 306.398ZM180.763 306.426L184.709 313.385L191.314 309.639L187.918 302.848L180.763 306.426ZM179.923 306.902L175.977 299.943L175.899 299.987L175.823 300.033L179.923 306.902ZM391.882 318.962L387.224 325.465L390.636 327.91L394.587 326.491L391.882 318.962ZM409.28 295.84L401.28 295.792V295.795L409.28 295.84ZM407.991 288.602L415.62 286.193L411.912 274.445L402.688 282.612L407.991 288.602ZM423.65 280.347L420.574 272.963L413.392 275.954L416.182 283.217L423.65 280.347ZM427.317 296.066L419.324 296.383L419.324 296.391L419.324 296.4L427.317 296.066ZM411.345 322.632L416.084 329.077L416.089 329.074L411.345 322.632ZM396.836 330.096L394.32 322.503L394.019 322.602L393.727 322.725L396.836 330.096ZM385.37 332.427L386.969 324.589L386.964 324.588L385.37 332.427ZM379.162 310.195L386.72 312.819L386.721 312.815L379.162 310.195ZM402.031 280.574L407.076 286.783L411.997 282.783L409.227 277.079L402.031 280.574ZM394.408 263.288L386.734 265.549L386.734 265.55L394.408 263.288ZM390.266 245.967L398.181 244.801L394.384 219.014L383.061 242.491L390.266 245.967ZM366.732 286.648L360.13 282.13L360.121 282.142L360.113 282.155L366.732 286.648ZM364.44 289.979L357.87 285.415L355.336 289.062L357.092 293.141L364.44 289.979ZM369.374 308.881L377.367 308.548L377.366 308.537L369.374 308.881ZM356.379 335.62L351.646 329.171L351.638 329.176L351.631 329.181L356.379 335.62ZM342.797 342.774L340.127 335.233L339.858 335.328L339.596 335.442L342.797 342.774ZM327 346.368L326.466 338.386L326.454 338.386L327 346.368ZM316.462 344.678L321.295 338.303L321.284 338.295L316.462 344.678ZM314.584 335.446L321.995 338.459L321.998 338.45L314.584 335.446ZM334.725 310.209L328.597 305.067L328.596 305.068L334.725 310.209ZM341.358 301.842L347.741 306.665L350.553 302.944L348.7 298.664L341.358 301.842ZM341.309 301.728L348.651 298.55L333.309 301.728H341.309ZM345.377 296.231L351.869 300.907L354.605 297.108L352.633 292.862L345.377 296.231ZM336.415 276.115L344.092 273.864L344.088 273.854L336.415 276.115ZM332.271 258.793L340.186 257.626L335.784 227.773L324.818 255.886L332.271 258.793ZM311.003 306.815L303.874 303.186L303.873 303.188L311.003 306.815ZM294.469 337.714L287.538 333.719L286.773 335.046L286.553 336.562L294.469 337.714ZM294.444 337.89L301.336 341.952L302.134 340.598L302.36 339.042L294.444 337.89ZM293.416 339.532L286.706 335.176L286.627 335.298L286.553 335.422L293.416 339.532ZM292.93 340.344L285.059 341.776L288.866 362.704L299.794 344.453L292.93 340.344ZM292.916 340.269L300.787 338.837L297.28 319.558L286.292 335.783L292.916 340.269ZM266.578 317.549L274.451 318.972L259.122 314.651L266.578 317.549ZM255.852 341.66L248.726 338.022L248.724 338.026L255.852 341.66ZM227.425 355.035L232.937 349.237L232.935 349.235L227.425 355.035ZM214.631 313.59L206.657 312.947L206.657 312.95L214.631 313.59ZM220.239 285.009L227.755 287.751L235.015 267.848L216.411 277.985L220.239 285.009ZM204.468 293.916L200.418 287.016L200.406 287.023L204.468 293.916ZM195.904 298.962L191.843 292.069L185.147 296.015L188.898 302.823L195.904 298.962ZM196.181 299.463L203.288 295.79L203.239 295.695L203.188 295.602L196.181 299.463ZM189.708 366.235L183.063 361.78L183.062 361.782L189.708 366.235ZM117.497 395.532L115.349 403.238L115.353 403.239L117.497 395.532ZM106.58 348.248L99.2903 344.953L99.29 344.954L106.58 348.248ZM169.432 298.11L172.984 305.278L173.139 305.201L173.29 305.118L169.432 298.11ZM172.435 296.456L176.294 303.465L186.298 297.956L177.703 290.436L172.435 296.456ZM88.5068 212.062L96.3618 210.546L96.3613 210.543L88.5068 212.062ZM124.268 143.689L118.801 137.848L118.8 137.849L124.268 143.689ZM225.36 85.6715L222.681 78.1336L222.68 78.1337L225.36 85.6715ZM357.106 114.868L364.858 112.892L364.858 112.891L357.106 114.868ZM292.942 212.627L295.829 220.088L295.829 220.088L292.942 212.627ZM212.942 220.532L210.445 228.132L210.446 228.132L212.942 220.532ZM188.283 201.129L195.752 198.261L195.747 198.249L188.283 201.129ZM188.283 194.354L192.147 201.359L192.151 201.357L188.283 194.354ZM193.739 197.748L187.806 203.115L187.812 203.121L193.739 197.748ZM236.85 208.67L235.959 200.72L235.957 200.72L236.85 208.67ZM333.234 119.39L340.516 116.077L340.515 116.076L333.234 119.39ZM205.794 123.16L209.363 130.319L209.364 130.319L205.794 123.16ZM120.514 208.67L112.526 208.231L112.526 208.234L120.514 208.67ZM187.019 286.875L192.933 281.487L192.895 281.446L192.857 281.405L187.019 286.875ZM187.944 287.89L182.03 293.277L186.281 297.945L191.809 294.894L187.944 287.89ZM201.838 280.238L205.687 287.251L205.69 287.249L201.838 280.238ZM230.679 264.441L234.515 271.462L236.189 270.547L237.27 268.975L230.679 264.441ZM281.65 267.049L273.869 265.189L289.296 269.403L281.65 267.049ZM282.589 265.735L282.766 273.733L282.787 273.732L282.807 273.732L282.589 265.735ZM291.44 264.216L294.196 256.705L294.189 256.703L294.182 256.7L291.44 264.216ZM296.334 271.381L304.305 270.698L304.304 270.687L296.334 271.381ZM285.795 313.765L293.651 315.279L293.652 315.275L285.795 313.765ZM288.637 323.061L295.646 326.916L297.48 323.581L296.05 320.054L288.637 323.061ZM288.611 322.997L281.59 319.162L279.772 322.49L281.197 326.004L288.611 322.997ZM290.952 318.514L298.082 322.143L298.126 322.056L298.168 321.969L290.952 318.514ZM291.241 317.912L298.57 314.706L291.569 298.7L284.025 314.458L291.241 317.912ZM291.253 317.939L283.923 321.146L290.691 336.617L298.376 321.58L291.253 317.939ZM298.212 303.422L305.493 306.736L305.497 306.728L298.212 303.422ZM326.451 239.381L334.016 241.982L334.017 241.98L326.451 239.381ZM330.031 226.567L337.503 229.425L337.51 229.407L337.517 229.388L330.031 226.567ZM346.966 222.61L346.908 230.61L346.966 222.61ZM356.567 227.132L348.591 227.755L348.592 227.774L348.594 227.792L356.567 227.132ZM351.485 245.405L343.554 244.351L343.553 244.358L343.552 244.366L351.485 245.405ZM352.237 262.364L360.171 261.341L360.171 261.337L352.237 262.364ZM358.184 277.119L351.07 280.778L357.582 293.438L365.009 281.292L358.184 277.119ZM384.432 226.579L376.577 225.062L376.577 225.064L384.432 226.579ZM388.012 213.765L395.484 216.623L395.485 216.62L388.012 213.765ZM404.947 209.808L405.005 201.808L405.004 201.808L404.947 209.808ZM409.466 232.605L417.398 233.648L417.398 233.645L409.466 232.605ZM410.217 249.564L402.283 250.589L402.284 250.596L410.217 249.564ZM418.918 269.74L411.767 273.327L415.329 280.428L422.455 276.915L418.918 269.74ZM457.672 260.685L457.712 268.685L457.718 268.685L457.672 260.685ZM474.846 262.438L472.464 270.075L482.846 273.314V262.438H474.846ZM463.193 122.146L459.19 129.072L459.197 129.077L463.193 122.146ZM267.72 9.16638L271.723 2.24007L271.722 2.23903L267.72 9.16638ZM244.15 9.16638L240.149 2.23861L240.14 2.24403L244.15 9.16638ZM49.2167 122.091L53.2175 129.019L53.2268 129.014L49.2167 122.091ZM49.2287 389.078L53.2363 382.154L53.2331 382.152L49.2287 389.078ZM244.476 502.091L248.487 495.17L248.484 495.168L244.476 502.091ZM267.957 502.091L263.951 495.167L263.946 495.17L267.957 502.091ZM463.294 389.078L467.3 396.002L467.303 396L463.294 389.078ZM474.86 277.255H482.86V271.272L477.121 269.581L474.86 277.255ZM240.244 290.644L247.84 293.153L247.842 293.15L240.244 290.644ZM241.183 332.453L243.209 324.714L243.203 324.712L241.183 332.453ZM260.007 296.467L252.606 293.429L252.605 293.431L260.007 296.467ZM270.923 256.726L264.029 260.784L264.032 260.789L270.923 256.726ZM330.22 333.141L326.053 339.97L326.084 339.989L326.115 340.007L330.22 333.141ZM334.502 332.05L338.198 339.145L338.487 338.995L338.763 338.821L334.502 332.05ZM351.3 308.666L359.3 308.683L359.3 308.675V308.666H351.3ZM351.263 307.615L359.246 307.09L357.845 285.775L344.899 302.767L351.263 307.615ZM343.952 316.958L350.187 321.971L350.192 321.965L343.952 316.958ZM168.007 304.727C159.948 309.767 147.451 318.141 137.613 327.442L148.605 339.069C157.266 330.881 168.68 323.177 176.491 318.292L168.007 304.727ZM137.616 327.439C128.944 335.629 123.505 345.561 121.439 354.534C120.411 359.002 120.136 363.604 121.04 367.8C121.95 372.017 124.229 376.434 128.743 379.052L136.772 365.212C137.281 365.508 136.954 365.695 136.681 364.428C136.403 363.139 136.369 361.001 137.032 358.123C138.348 352.404 142.09 345.221 148.602 339.071L137.616 327.439ZM128.746 379.053C135.555 383.001 144.63 381.86 152.129 379.181C160.158 376.313 168.677 370.927 175.743 363.22L163.95 352.407C158.636 358.203 152.315 362.124 146.746 364.114C140.649 366.292 137.37 365.559 136.77 365.211L128.746 379.053ZM175.744 363.218C190.476 347.144 196.68 326.375 190.385 303.166L174.943 307.355C179.716 324.951 175.203 340.128 163.949 352.408L175.744 363.218ZM178.569 298.388C177.822 298.833 177.314 299.144 176.748 299.471L184.751 313.326C185.437 312.929 186.206 312.462 186.759 312.133L178.569 298.388ZM173.594 309.976L173.607 310.004L187.918 302.848L187.904 302.821L173.594 309.976ZM176.817 299.467L175.977 299.943L183.869 313.861L184.709 313.385L176.817 299.467ZM175.823 300.033C172.577 301.97 169.925 303.568 168.115 304.66L176.383 318.358C178.181 317.273 180.809 315.69 184.024 313.771L175.823 300.033ZM387.97 301.728C385.682 306.699 384.176 310.609 383.533 313.668C383.036 316.034 382.217 321.879 387.224 325.465L396.541 312.458C398.2 313.646 398.892 315.289 399.083 316.396C399.226 317.23 399.063 317.567 399.191 316.959C399.443 315.76 400.297 313.214 402.505 308.417L387.97 301.728ZM394.587 326.491C398.362 325.134 403.976 322.626 408.709 317.796C413.644 312.76 417.225 305.59 417.28 295.886L401.28 295.795C401.249 301.222 399.393 304.442 397.281 306.598C394.967 308.959 391.925 310.446 389.178 311.433L394.587 326.491ZM417.28 295.889C417.3 292.47 416.555 289.153 415.62 286.193L400.362 291.01C401.032 293.132 401.287 294.678 401.28 295.792L417.28 295.889ZM402.688 282.612C394.827 289.573 390.163 296.96 387.969 301.73L402.505 308.415C403.837 305.52 407.211 299.978 413.295 294.591L402.688 282.612ZM466.146 267.592C447.459 265.414 432.475 268.004 420.574 272.963L426.727 287.732C435.927 283.899 448.135 281.601 464.294 283.485L466.146 267.592ZM416.182 283.217C417.987 287.912 419.161 292.283 419.324 296.383L435.311 295.749C435.051 289.176 433.222 282.953 431.118 277.478L416.182 283.217ZM419.324 296.4C419.638 303.891 414.537 310.345 406.6 316.191L416.089 329.074C424.954 322.544 435.977 311.664 435.31 295.731L419.324 296.4ZM406.606 316.187C402.485 319.217 398.046 321.268 394.32 322.503L399.353 337.69C404.391 336.021 410.392 333.263 416.084 329.077L406.606 316.187ZM393.727 322.725C392.194 323.372 390.597 323.946 389.167 324.289C387.594 324.665 386.94 324.583 386.969 324.589L383.772 340.266C387.106 340.946 390.434 340.437 392.891 339.849C395.492 339.227 397.975 338.298 399.945 337.467L393.727 322.725ZM386.964 324.588C385.493 324.289 385.367 323.87 385.222 323.458C384.84 322.371 384.482 319.265 386.72 312.819L371.605 307.571C368.885 315.404 367.987 322.673 370.127 328.763C372.504 335.527 377.96 339.085 383.777 340.267L386.964 324.588ZM386.721 312.815C388.822 306.751 395.534 296.162 407.076 286.783L396.986 274.366C383.592 285.249 374.857 298.186 371.603 307.576L386.721 312.815ZM409.227 277.079C406.154 270.753 403.451 265.672 402.081 261.025L386.734 265.55C388.593 271.855 392.224 278.695 394.835 284.069L409.227 277.079ZM402.082 261.026C400.553 255.838 399.566 251.704 398.967 248.905C398.668 247.506 398.465 246.441 398.341 245.745C398.278 245.397 398.236 245.141 398.21 244.983C398.197 244.903 398.188 244.848 398.183 244.818C398.181 244.803 398.18 244.794 398.179 244.791C398.179 244.789 398.179 244.79 398.179 244.791C398.18 244.792 398.18 244.794 398.18 244.795C398.18 244.796 398.18 244.797 398.18 244.798C398.18 244.799 398.181 244.799 398.181 244.8C398.181 244.801 398.181 244.801 390.266 245.967C382.352 247.132 382.352 247.133 382.352 247.134C382.352 247.134 382.352 247.135 382.352 247.136C382.352 247.137 382.353 247.139 382.353 247.141C382.353 247.144 382.354 247.147 382.354 247.152C382.356 247.16 382.357 247.169 382.359 247.181C382.362 247.203 382.367 247.232 382.372 247.267C382.383 247.338 382.398 247.434 382.418 247.554C382.457 247.794 382.514 248.133 382.591 248.565C382.746 249.43 382.983 250.671 383.321 252.253C383.998 255.415 385.082 259.942 386.734 265.549L402.082 261.026ZM390.266 245.967C383.061 242.491 383.061 242.491 383.061 242.49C383.061 242.49 383.061 242.49 383.061 242.49C383.061 242.49 383.061 242.49 383.061 242.491C383.06 242.492 383.059 242.495 383.057 242.498C383.054 242.506 383.047 242.518 383.039 242.536C383.022 242.571 382.995 242.626 382.959 242.701C382.886 242.849 382.775 243.076 382.628 243.373C382.334 243.968 381.894 244.849 381.324 245.97C380.182 248.213 378.519 251.413 376.448 255.211C372.293 262.828 366.552 272.744 360.13 282.13L373.334 291.165C380.17 281.175 386.196 270.752 390.494 262.872C392.649 258.921 394.384 255.584 395.583 253.227C396.183 252.048 396.65 251.113 396.969 250.467C397.129 250.144 397.252 249.894 397.336 249.721C397.379 249.635 397.411 249.568 397.434 249.521C397.445 249.498 397.454 249.479 397.46 249.466C397.463 249.46 397.466 249.454 397.468 249.45C397.469 249.448 397.47 249.447 397.47 249.445C397.471 249.445 397.471 249.444 397.471 249.444C397.471 249.443 397.472 249.442 390.266 245.967ZM360.113 282.155C359.372 283.246 358.628 284.324 357.87 285.415L371.011 294.542C371.782 293.432 372.563 292.301 373.351 291.141L360.113 282.155ZM357.092 293.141C359.526 298.798 361.163 304.169 361.381 309.226L377.366 308.537C377.028 300.69 374.562 293.262 371.789 286.816L357.092 293.141ZM361.381 309.215C361.747 318.006 358.125 324.416 351.646 329.171L361.112 342.07C371.459 334.477 377.976 323.177 377.367 308.548L361.381 309.215ZM351.631 329.181C347.821 331.991 343.694 333.97 340.127 335.233L345.467 350.315C350.238 348.626 355.827 345.967 361.127 342.059L351.631 329.181ZM339.596 335.442C337.622 336.304 333.103 337.942 326.466 338.386L327.534 354.35C336.317 353.763 342.641 351.572 345.998 350.106L339.596 335.442ZM326.454 338.386C324.625 338.511 323.146 338.491 322.059 338.345C320.857 338.185 320.849 337.965 321.295 338.303L311.629 351.053C314.34 353.109 317.493 353.877 319.939 354.204C322.501 354.547 325.158 354.512 327.546 354.349L326.454 338.386ZM321.284 338.295C321.07 338.133 321.126 338.13 321.262 338.331C321.33 338.432 321.405 338.566 321.472 338.73C321.539 338.893 321.586 339.056 321.614 339.208C321.671 339.515 321.631 339.655 321.651 339.535C321.674 339.397 321.752 339.055 321.995 338.459L307.173 332.433C306.077 335.128 305.209 338.501 305.883 342.129C306.607 346.027 308.863 348.964 311.641 351.062L321.284 338.295ZM321.998 338.45C321.897 338.699 322.161 338.121 323.523 336.289C324.688 334.721 326.263 332.748 328.133 330.475C331.907 325.888 336.473 320.573 340.854 315.35L328.596 305.068C324.414 310.053 319.592 315.672 315.777 320.309C313.853 322.648 312.083 324.859 310.682 326.744C309.477 328.365 307.952 330.508 307.169 332.443L321.998 338.45ZM340.854 315.351C343.331 312.398 345.671 309.405 347.741 306.665L334.976 297.019C333.015 299.614 330.849 302.382 328.597 305.067L340.854 315.351ZM348.7 298.664L348.651 298.55L333.967 304.906L334.017 305.02L348.7 298.664ZM333.309 301.728C337.684 308.859 346.527 307.792 346.997 307.354C347.12 307.226 347.296 307.034 347.35 306.972C347.431 306.879 347.493 306.803 347.502 306.792C347.539 306.747 347.568 306.71 347.574 306.703C347.593 306.679 347.608 306.66 347.613 306.654C347.626 306.637 347.638 306.621 347.647 306.609C347.667 306.584 347.691 306.553 347.718 306.518C347.774 306.445 347.852 306.343 347.951 306.213C348.15 305.953 348.436 305.575 348.801 305.088C349.532 304.113 350.579 302.698 351.869 300.907L338.886 291.556C337.659 293.259 336.671 294.593 335.997 295.494C335.66 295.944 335.401 296.285 335.23 296.509C335.145 296.621 335.082 296.703 335.043 296.753C335.023 296.779 335.011 296.794 335.007 296.8C335.003 296.804 335.007 296.8 335.014 296.791C335.016 296.789 335.029 296.772 335.047 296.75C335.051 296.744 335.08 296.708 335.116 296.663C335.126 296.652 335.187 296.577 335.268 296.484C335.322 296.421 335.498 296.23 335.621 296.102C336.091 295.664 344.934 294.596 349.309 301.728H333.309ZM352.633 292.862C349.074 285.199 345.734 279.466 344.092 273.864L328.738 278.366C330.826 285.488 335.421 293.786 338.121 299.601L352.633 292.862ZM344.088 273.854C342.56 268.665 341.572 264.531 340.973 261.731C340.673 260.331 340.471 259.266 340.346 258.57C340.284 258.222 340.241 257.966 340.215 257.807C340.202 257.728 340.193 257.673 340.188 257.642C340.186 257.627 340.185 257.618 340.184 257.615C340.184 257.614 340.184 257.614 340.184 257.616C340.184 257.617 340.185 257.618 340.185 257.619C340.185 257.62 340.185 257.621 340.185 257.622C340.185 257.623 340.185 257.624 340.185 257.624C340.186 257.625 340.186 257.626 332.271 258.793C324.357 259.96 324.357 259.961 324.357 259.962C324.357 259.962 324.357 259.963 324.357 259.964C324.358 259.965 324.358 259.967 324.358 259.968C324.359 259.971 324.359 259.975 324.36 259.979C324.361 259.987 324.362 259.997 324.364 260.008C324.368 260.031 324.372 260.06 324.378 260.095C324.388 260.166 324.404 260.261 324.423 260.381C324.462 260.622 324.519 260.96 324.597 261.393C324.752 262.258 324.989 263.499 325.327 265.08C326.004 268.243 327.089 272.77 328.741 278.376L344.088 273.854ZM332.271 258.793C324.818 255.886 324.818 255.885 324.818 255.885C324.818 255.885 324.818 255.885 324.818 255.886C324.818 255.886 324.818 255.887 324.817 255.888C324.816 255.89 324.815 255.894 324.813 255.9C324.808 255.911 324.801 255.929 324.792 255.953C324.773 256.001 324.745 256.074 324.706 256.171C324.63 256.365 324.516 256.655 324.366 257.033C324.066 257.79 323.623 258.901 323.057 260.301C321.924 263.104 320.301 267.066 318.341 271.687C314.411 280.956 309.177 292.768 303.874 303.186L318.133 310.444C323.681 299.545 329.081 287.345 333.072 277.933C335.073 273.213 336.732 269.166 337.892 266.295C338.472 264.86 338.927 263.717 339.239 262.93C339.395 262.537 339.515 262.233 339.597 262.025C339.638 261.921 339.669 261.841 339.69 261.787C339.701 261.76 339.709 261.739 339.715 261.724C339.718 261.717 339.72 261.711 339.722 261.707C339.722 261.705 339.723 261.703 339.723 261.702C339.724 261.702 339.724 261.701 339.724 261.701C339.724 261.7 339.724 261.7 332.271 258.793ZM303.873 303.188C295.536 319.579 289.993 329.461 287.538 333.719L301.4 341.71C304 337.199 309.676 327.071 318.134 310.442L303.873 303.188ZM286.553 336.562L286.527 336.738L302.36 339.042L302.386 338.866L286.553 336.562ZM294.444 337.89C287.552 333.828 287.552 333.828 287.552 333.828C287.552 333.828 287.552 333.827 287.552 333.827C287.552 333.827 287.552 333.827 287.553 333.826C287.553 333.826 287.553 333.825 287.554 333.825C287.554 333.824 287.555 333.823 287.555 333.822C287.556 333.821 287.556 333.82 287.556 333.82C287.556 333.82 287.555 333.822 287.552 333.827C287.547 333.836 287.536 333.854 287.52 333.881C287.487 333.935 287.434 334.023 287.361 334.141C287.215 334.379 286.992 334.735 286.706 335.176L300.127 343.887C300.491 343.327 300.781 342.862 300.987 342.529C301.089 342.362 301.171 342.228 301.229 342.13C301.259 342.081 301.282 342.042 301.3 342.012C301.309 341.997 301.317 341.984 301.322 341.974C301.325 341.969 301.328 341.965 301.33 341.961C301.331 341.959 301.332 341.958 301.333 341.956C301.334 341.955 301.334 341.954 301.335 341.954C301.335 341.953 301.335 341.953 301.335 341.953C301.335 341.953 301.335 341.952 301.336 341.952C301.336 341.952 301.336 341.952 294.444 337.89ZM286.553 335.422L286.066 336.234L299.794 344.453L300.28 343.641L286.553 335.422ZM300.801 338.912L300.787 338.837L285.046 341.701L285.059 341.776L300.801 338.912ZM286.292 335.783C285.029 337.649 283.124 340.181 281.022 342.16C278.617 344.423 277.419 344.581 277.495 344.581V360.581C283.854 360.581 288.958 356.663 291.988 353.811C295.322 350.673 297.987 347.049 299.54 344.755L286.292 335.783ZM277.495 344.581C276.609 344.581 276.194 344.456 275.499 343.21C274.528 341.469 273.81 338.498 273.551 334.543C273.304 330.758 273.519 326.851 273.82 323.808C273.968 322.308 274.132 321.063 274.257 320.207C274.319 319.779 274.371 319.451 274.406 319.24C274.423 319.134 274.436 319.057 274.444 319.012C274.448 318.989 274.451 318.974 274.452 318.967C274.452 318.964 274.453 318.963 274.452 318.963C274.452 318.964 274.452 318.965 274.452 318.966C274.452 318.967 274.452 318.968 274.451 318.968C274.451 318.97 274.451 318.972 266.578 317.549C258.706 316.126 258.706 316.128 258.705 316.13C258.705 316.131 258.705 316.133 258.704 316.135C258.704 316.138 258.703 316.142 258.702 316.147C258.701 316.156 258.699 316.167 258.696 316.181C258.691 316.208 258.685 316.243 258.678 316.287C258.663 316.374 258.642 316.494 258.617 316.645C258.568 316.946 258.501 317.371 258.424 317.901C258.269 318.961 258.073 320.453 257.897 322.237C257.549 325.762 257.26 330.614 257.585 335.587C257.9 340.39 258.833 346.177 261.526 351.004C264.494 356.327 269.757 360.581 277.495 360.581V344.581ZM266.578 317.549C259.122 314.651 259.122 314.651 259.122 314.65C259.122 314.65 259.122 314.65 259.122 314.65C259.122 314.65 259.122 314.65 259.122 314.651C259.122 314.651 259.121 314.653 259.12 314.655C259.118 314.659 259.115 314.667 259.111 314.678C259.103 314.699 259.09 314.732 259.072 314.777C259.037 314.868 258.983 315.005 258.912 315.185C258.769 315.545 258.557 316.078 258.284 316.754C257.737 318.108 256.948 320.032 255.985 322.298C254.048 326.852 251.448 332.69 248.726 338.022L262.977 345.297C265.939 339.495 268.703 333.277 270.709 328.559C271.716 326.189 272.543 324.173 273.12 322.746C273.408 322.032 273.634 321.464 273.79 321.071C273.867 320.875 273.927 320.722 273.969 320.617C273.989 320.564 274.005 320.523 274.016 320.495C274.022 320.48 274.026 320.469 274.029 320.461C274.031 320.457 274.032 320.454 274.033 320.451C274.034 320.45 274.034 320.449 274.034 320.448C274.035 320.448 274.035 320.447 274.035 320.447C274.035 320.447 274.035 320.446 266.578 317.549ZM248.724 338.026C246.319 342.743 244.563 345.936 242.625 348.063C241.036 349.807 239.707 350.433 237.778 350.433V366.433C245.075 366.433 250.468 363.212 254.452 358.839C258.087 354.85 260.754 349.656 262.979 345.293L248.724 338.026ZM237.778 350.433C235.202 350.433 233.955 350.204 232.937 349.237L221.913 360.833C227.881 366.507 235.047 366.433 237.778 366.433V350.433ZM232.935 349.235C230.396 346.823 227.425 341.652 225.25 334.663C223.13 327.852 222.11 320.409 222.606 314.229L206.657 312.95C205.965 321.574 207.38 331.09 209.973 339.419C212.511 347.57 216.531 355.72 221.915 360.835L232.935 349.235ZM222.606 314.232C223.576 302.187 225.401 294.203 227.755 287.751L212.723 282.268C209.77 290.366 207.715 299.818 206.657 312.947L222.606 314.232ZM216.411 277.985C211.623 280.594 206.077 283.694 200.418 287.016L208.517 300.815C213.998 297.598 219.391 294.582 224.067 292.034L216.411 277.985ZM200.406 287.023L191.843 292.069L199.966 305.854L208.529 300.808L200.406 287.023ZM188.898 302.823L189.174 303.324L203.188 295.602L202.911 295.101L188.898 302.823ZM189.074 303.137C191.808 308.425 193.928 317.872 193.403 328.967C192.884 339.923 189.817 351.704 183.063 361.78L196.354 370.689C205.047 357.719 208.758 342.966 209.385 329.724C210.005 316.621 207.638 304.205 203.288 295.79L189.074 303.137ZM183.062 361.782C169.153 382.546 143.708 394.517 119.64 387.824L115.353 403.239C147.312 412.126 179.373 396.039 196.355 370.687L183.062 361.782ZM119.644 387.825C118.368 387.469 114.231 384.646 111.729 377.928C109.43 371.753 108.807 362.749 113.87 351.543L99.29 344.954C92.5758 359.812 92.8913 373.19 96.7348 383.512C100.376 393.289 107.586 401.075 115.349 403.238L119.644 387.825ZM113.87 351.543C118.077 342.237 129.355 332.121 142.336 323.183C154.933 314.508 167.667 307.913 172.984 305.278L165.879 290.942C160.255 293.73 146.757 300.712 133.262 310.005C120.149 319.033 105.473 331.275 99.2903 344.953L113.87 351.543ZM173.29 305.118L176.294 303.465L168.577 289.448L165.573 291.102L173.29 305.118ZM177.703 290.436C171.828 285.295 163.904 279.825 155.731 274.192C147.393 268.445 138.532 262.357 130.135 255.674C113.055 242.082 99.5976 227.31 96.3618 210.546L80.6518 213.578C85.0509 236.369 102.65 254.25 120.172 268.194C129.075 275.279 138.401 281.68 146.652 287.366C155.068 293.167 162.135 298.074 167.167 302.477L177.703 290.436ZM96.3613 210.543C94.9279 203.132 98.1465 179.104 129.736 149.528L118.8 137.849C85.0003 169.495 77.7786 198.723 80.6524 213.581L96.3613 210.543ZM129.735 149.529C156.157 124.799 193.311 105.556 228.04 93.2093L222.68 78.1337C186.734 90.9132 147.379 111.1 118.801 137.848L129.735 149.529ZM228.04 93.2094C256.527 83.0827 285.538 81.1305 308.202 85.9839C331.147 90.8974 345.614 102.175 349.354 116.844L364.858 112.891C358.947 89.7085 337.226 75.8363 311.553 70.3386C285.598 64.7807 253.561 67.1562 222.681 78.1336L228.04 93.2094ZM349.354 116.844C353.36 132.56 348.696 150.654 337.469 167.215C326.287 183.711 309.152 197.775 290.054 205.166L295.829 220.088C318.09 211.472 337.781 195.269 350.713 176.193C363.601 157.183 370.34 134.4 364.858 112.892L349.354 116.844ZM290.055 205.166C254.579 218.895 225.964 216.388 215.438 212.931L210.446 228.132C225.005 232.914 257.452 234.94 295.829 220.088L290.055 205.166ZM215.439 212.931C209.377 210.94 204.652 207.97 201.29 205.037C197.789 201.982 196.159 199.323 195.752 198.261L180.815 203.997C182.447 208.246 186.017 212.945 190.771 217.093C195.665 221.363 202.25 225.439 210.445 228.132L215.439 212.931ZM195.747 198.249C195.53 197.687 195.375 197.284 195.245 196.885C195.112 196.478 195.09 196.32 195.094 196.348C195.097 196.377 195.117 196.533 195.107 196.787C195.098 197.041 195.055 197.472 194.888 198.008C194.716 198.562 194.412 199.218 193.904 199.861C193.388 200.515 192.773 201.014 192.147 201.359L184.419 187.349C178.809 190.444 178.94 196.275 179.236 198.478C179.558 200.879 180.507 203.199 180.82 204.009L195.747 198.249ZM192.151 201.357C192.348 201.248 191.379 201.857 189.889 201.986C188.072 202.144 186.71 201.54 186.076 201.163C185.622 200.892 185.525 200.729 185.974 201.167C186.364 201.548 186.932 202.149 187.806 203.115L199.671 192.381C198.756 191.369 197.914 190.464 197.154 189.722C196.454 189.038 195.468 188.134 194.264 187.417C192.882 186.593 190.91 185.837 188.504 186.046C186.426 186.227 184.888 187.09 184.416 187.351L192.151 201.357ZM187.812 203.121C193.002 208.847 209.26 219.817 237.742 216.62L235.957 200.72C212.415 203.362 201.288 194.165 199.666 192.375L187.812 203.121ZM237.741 216.62C273.706 212.588 302.775 196.571 321.266 177.428C330.5 167.868 337.281 157.334 340.829 146.884C344.369 136.462 344.842 125.587 340.516 116.077L325.952 122.703C328.122 127.472 328.328 133.94 325.679 141.739C323.04 149.512 317.711 158.078 309.758 166.312C293.873 182.756 268.253 197.099 235.959 200.72L237.741 216.62ZM340.515 116.076C337.132 108.644 330.209 103.202 321.913 99.5987C313.519 95.9522 302.981 93.8399 290.984 93.4902C266.95 92.7895 236.065 99.1243 202.223 116L209.364 130.319C241.252 114.417 269.538 108.872 290.517 109.483C301.026 109.79 309.456 111.632 315.539 114.274C321.721 116.959 324.786 120.141 325.953 122.704L340.515 116.076ZM202.224 116C161.449 136.33 139.143 155.264 126.942 171.393C114.522 187.811 112.93 200.861 112.526 208.231L128.502 209.108C128.785 203.953 129.714 194.25 139.703 181.046C149.91 167.552 169.901 149.994 209.363 130.319L202.224 116ZM112.526 208.234C111.369 229.434 124.642 244.814 138.811 257.123C145.958 263.332 154.016 269.32 161.321 275.004C168.794 280.818 175.64 286.43 181.181 292.345L192.857 281.405C186.393 274.506 178.688 268.244 171.146 262.376C163.438 256.378 156.017 250.876 149.305 245.045C135.754 233.272 127.779 222.361 128.502 209.105L112.526 208.234ZM181.105 292.262L182.03 293.277L193.858 282.503L192.933 281.487L181.105 292.262ZM191.809 294.894C196.302 292.415 201.04 289.801 205.687 287.251L197.989 273.225C193.325 275.784 188.572 278.406 184.078 280.886L191.809 294.894ZM205.69 287.249C217.787 280.602 229.197 274.367 234.515 271.462L226.843 257.421C221.523 260.327 210.1 266.57 197.985 273.227L205.69 287.249ZM237.27 268.975C240.924 263.665 246.644 257.856 252.846 253.425C259.285 248.823 264.981 246.603 268.657 246.603V230.603C259.953 230.603 250.884 235.161 243.543 240.407C235.963 245.824 228.885 252.934 224.088 259.907L237.27 268.975ZM268.657 246.603C271.415 246.603 272.316 247.458 272.803 248.063C273.591 249.043 274.314 250.864 274.622 253.692C274.918 256.412 274.749 259.299 274.463 261.627C274.323 262.763 274.164 263.701 274.043 264.339C273.983 264.656 273.933 264.895 273.902 265.042C273.886 265.115 273.875 265.165 273.869 265.191C273.866 265.203 273.864 265.21 273.864 265.21C273.864 265.209 273.865 265.208 273.866 265.204C273.866 265.203 273.867 265.201 273.867 265.198C273.867 265.197 273.868 265.195 273.868 265.194C273.869 265.192 273.869 265.189 281.65 267.049C289.431 268.908 289.432 268.905 289.432 268.903C289.433 268.901 289.433 268.899 289.434 268.897C289.435 268.892 289.436 268.888 289.437 268.883C289.44 268.872 289.442 268.86 289.446 268.847C289.452 268.819 289.46 268.785 289.469 268.743C289.488 268.661 289.513 268.551 289.542 268.416C289.6 268.147 289.677 267.774 289.764 267.314C289.938 266.396 290.155 265.112 290.343 263.581C290.713 260.575 291.006 256.352 290.528 251.96C290.061 247.677 288.772 242.387 285.269 238.033C281.464 233.304 275.794 230.603 268.657 230.603V246.603ZM281.65 267.049C289.296 269.403 289.295 269.405 289.295 269.406C289.295 269.407 289.294 269.408 289.294 269.409C289.294 269.411 289.293 269.413 289.292 269.414C289.291 269.418 289.29 269.422 289.289 269.425C289.287 269.432 289.285 269.439 289.283 269.446C289.278 269.459 289.274 269.472 289.271 269.484C289.263 269.507 289.256 269.529 289.249 269.549C289.236 269.588 289.223 269.625 289.209 269.662C289.189 269.715 289.137 269.851 289.039 270.042C288.977 270.163 288.696 270.712 288.118 271.344C287.689 271.813 285.89 273.663 282.766 273.733L282.411 257.737C279.018 257.812 276.967 259.829 276.312 260.546C275.508 261.425 275.027 262.302 274.797 262.75C274.532 263.269 274.346 263.73 274.234 264.028C274.174 264.187 274.125 264.326 274.088 264.436C274.069 264.492 274.053 264.541 274.039 264.584C274.032 264.606 274.026 264.626 274.02 264.644C274.017 264.653 274.014 264.662 274.012 264.67C274.011 264.674 274.009 264.678 274.008 264.682C274.008 264.684 274.007 264.686 274.006 264.688C274.006 264.689 274.006 264.691 274.005 264.691C274.005 264.693 274.005 264.694 281.65 267.049ZM282.807 273.732C284.822 273.677 286.252 272.882 286.681 272.637C287.25 272.312 287.674 271.982 287.842 271.849C288.039 271.693 288.216 271.542 288.289 271.479C288.396 271.388 288.432 271.356 288.485 271.312C288.633 271.188 288.557 271.27 288.373 271.357C288.154 271.461 287.945 271.502 287.833 271.506C287.743 271.509 288.001 271.477 288.699 271.731L294.182 256.7C289.255 254.903 284.946 255.268 281.496 256.91C279.934 257.654 278.825 258.533 278.215 259.043C278.079 259.157 277.943 259.274 277.893 259.317C277.81 259.388 277.846 259.355 277.918 259.298C277.961 259.265 278.274 259.013 278.746 258.744C279.079 258.554 280.425 257.791 282.371 257.738L282.807 273.732ZM288.685 271.726C289.391 271.985 289.43 272.137 289.215 271.923C289.11 271.819 288.978 271.661 288.852 271.446C288.726 271.233 288.631 271.009 288.565 270.789C288.436 270.359 288.444 270.033 288.451 269.925C288.454 269.872 288.459 269.85 288.445 269.954C288.443 269.968 288.441 269.983 288.438 270.004C288.435 270.023 288.431 270.049 288.428 270.075C288.421 270.124 288.409 270.214 288.397 270.318C288.39 270.373 288.383 270.443 288.375 270.523C288.367 270.602 288.358 270.705 288.351 270.826C288.343 270.944 288.335 271.105 288.334 271.296C288.332 271.481 288.336 271.751 288.365 272.076L304.304 270.687C304.354 271.253 304.328 271.691 304.319 271.83C304.307 272.013 304.292 272.148 304.287 272.186C304.282 272.229 304.273 272.295 304.297 272.124C304.328 271.892 304.39 271.433 304.423 270.866C304.49 269.733 304.455 268.077 303.893 266.2C302.624 261.961 299.309 258.581 294.196 256.705L288.685 271.726ZM288.364 272.065C288.301 271.339 288.359 270.779 288.37 270.665C288.39 270.458 288.414 270.306 288.424 270.245C288.444 270.122 288.458 270.065 288.445 270.125C288.422 270.229 288.37 270.451 288.275 270.829C288.088 271.567 287.805 272.634 287.434 274.009C286.705 276.711 285.662 280.519 284.531 284.759C282.276 293.22 279.556 303.84 277.939 312.256L293.652 315.275C295.151 307.471 297.737 297.337 299.992 288.88C301.116 284.661 302.128 280.968 302.882 278.176C303.252 276.803 303.566 275.625 303.787 274.749C303.896 274.32 304 273.892 304.08 273.522C304.119 273.345 304.171 273.094 304.215 272.823C304.237 272.688 304.27 272.473 304.295 272.215C304.311 272.051 304.37 271.451 304.305 270.698L288.364 272.065ZM277.94 312.252C277.076 316.737 276.877 320.685 276.982 323.642C277.034 325.098 277.164 326.452 277.374 327.591C277.469 328.11 277.633 328.875 277.928 329.671C278.057 330.018 278.367 330.807 278.961 331.658C279.185 331.979 281.311 335.144 285.608 335.144V319.144C287.82 319.144 289.454 320.043 290.373 320.734C291.266 321.405 291.811 322.113 292.081 322.5C292.614 323.265 292.862 323.924 292.928 324.103C293.098 324.56 293.133 324.824 293.109 324.694C293.08 324.534 293.005 323.995 292.972 323.073C292.908 321.275 293.023 318.535 293.651 315.279L277.94 312.252ZM285.608 335.144C287.744 335.144 289.304 334.328 290.026 333.889C290.829 333.4 291.419 332.866 291.778 332.515C292.498 331.809 293.067 331.052 293.446 330.517C294.243 329.39 295.018 328.059 295.646 326.916L281.627 319.205C281.091 320.179 280.658 320.889 280.385 321.275C280.228 321.496 280.297 321.364 280.574 321.093C280.71 320.958 281.093 320.595 281.705 320.222C282.237 319.899 283.624 319.144 285.608 319.144V335.144ZM296.05 320.054L296.025 319.991L281.197 326.004L281.223 326.067L296.05 320.054ZM288.611 322.997C295.632 326.833 295.632 326.833 295.632 326.833C295.632 326.833 295.632 326.832 295.632 326.832C295.632 326.832 295.632 326.832 295.632 326.831C295.633 326.831 295.633 326.83 295.634 326.829C295.635 326.827 295.636 326.825 295.637 326.823C295.64 326.818 295.643 326.811 295.648 326.803C295.657 326.787 295.669 326.764 295.685 326.735C295.716 326.678 295.76 326.596 295.817 326.491C295.93 326.279 296.094 325.972 296.305 325.575C296.725 324.78 297.329 323.622 298.082 322.143L283.822 314.886C283.109 316.287 282.543 317.371 282.159 318.098C281.967 318.461 281.821 318.734 281.725 318.913C281.676 319.003 281.641 319.069 281.618 319.111C281.607 319.131 281.599 319.146 281.594 319.155C281.592 319.159 281.59 319.162 281.59 319.163C281.589 319.164 281.589 319.164 281.589 319.164C281.589 319.163 281.59 319.163 281.59 319.163C281.59 319.163 281.59 319.163 281.59 319.163C281.59 319.162 281.59 319.162 281.59 319.162C281.59 319.162 281.59 319.162 288.611 322.997ZM298.168 321.969L298.456 321.367L284.025 314.458L283.737 315.06L298.168 321.969ZM283.911 321.118L283.923 321.146L298.582 314.733L298.57 314.706L283.911 321.118ZM298.376 321.58C300.164 318.081 302.644 312.999 305.493 306.736L290.93 300.109C288.172 306.17 285.798 311.033 284.129 314.299L298.376 321.58ZM305.497 306.728C308.254 300.65 314.879 285.913 321.036 272.047C327.067 258.467 332.979 244.999 334.016 241.982L318.885 236.781C318.144 238.937 312.684 251.433 306.413 265.553C300.27 279.387 293.664 294.084 290.926 300.117L305.497 306.728ZM334.017 241.98C335.028 239.036 335.774 236.112 336.342 233.822C336.995 231.192 337.291 229.979 337.503 229.425L322.559 223.71C321.893 225.449 321.287 228.057 320.813 229.968C320.255 232.218 319.65 234.554 318.884 236.783L334.017 241.98ZM337.517 229.388C337.025 230.694 336.275 231.444 335.942 231.737C335.592 232.046 335.369 232.145 335.446 232.106C335.616 232.02 336.217 231.771 337.394 231.496C339.691 230.96 343.059 230.582 346.908 230.61L347.024 214.61C342.212 214.575 337.545 215.03 333.755 215.915C331.888 216.351 329.934 216.96 328.2 217.841C326.846 218.529 323.866 220.239 322.544 223.747L337.517 229.388ZM346.908 230.61C350.219 230.634 350.632 231.355 350.056 230.904C349.754 230.667 349.388 230.261 349.096 229.673C348.827 229.133 348.649 228.497 348.591 227.755L364.542 226.509C364.367 224.261 363.271 220.933 359.928 218.313C356.732 215.807 352.375 214.649 347.024 214.61L346.908 230.61ZM348.594 227.792C348.521 226.909 348.621 226.235 348.643 226.084C348.68 225.83 348.721 225.649 348.735 225.586C348.764 225.459 348.778 225.423 348.742 225.543C348.675 225.767 348.553 226.143 348.353 226.737C347.981 227.84 347.398 229.528 346.802 231.366C345.633 234.965 344.141 239.943 343.554 244.351L359.415 246.46C359.793 243.617 360.873 239.839 362.02 236.306C362.581 234.577 363.092 233.104 363.516 231.843C363.715 231.254 363.916 230.646 364.069 230.135C364.144 229.887 364.242 229.545 364.326 229.181C364.368 228.999 364.429 228.716 364.478 228.379C364.512 228.144 364.616 227.403 364.539 226.472L348.594 227.792ZM343.552 244.366C342.434 252.901 343.574 257.759 344.303 263.392L360.171 261.337C359.324 254.792 358.634 252.414 359.417 246.445L343.552 244.366ZM344.303 263.388C344.699 266.456 345.78 269.502 346.94 272.224C348.122 274.998 349.604 277.928 351.07 280.778L365.299 273.46C363.82 270.586 362.587 268.129 361.659 265.953C360.71 263.723 360.289 262.254 360.171 261.341L344.303 263.388ZM365.009 281.292C369.564 273.844 375.825 263.039 381.155 253.071C383.819 248.09 386.291 243.242 388.213 239.086C390.014 235.19 391.699 231.141 392.287 228.095L376.577 225.064C376.407 225.944 375.552 228.345 373.69 232.371C371.949 236.137 369.635 240.685 367.046 245.526C361.873 255.2 355.767 265.737 351.359 272.945L365.009 281.292ZM392.287 228.096C393.224 223.243 394.749 218.545 395.484 216.623L380.54 210.908C379.52 213.573 377.715 219.171 376.577 225.062L392.287 228.096ZM395.485 216.62C394.992 217.912 394.247 218.653 393.918 218.943C393.571 219.248 393.352 219.345 393.43 219.305C393.602 219.218 394.204 218.969 395.38 218.695C397.675 218.158 401.041 217.781 404.89 217.808L405.004 201.808C400.193 201.774 395.529 202.229 391.74 203.114C389.874 203.55 387.922 204.158 386.189 205.038C384.831 205.727 381.869 207.429 380.539 210.911L395.485 216.62ZM404.889 217.808C408.2 217.832 408.612 218.553 408.035 218.101C407.733 217.864 407.368 217.459 407.077 216.873C406.808 216.333 406.634 215.706 406.575 214.989L422.521 213.672C422.338 211.46 421.257 208.137 417.909 205.511C414.713 203.005 410.356 201.847 405.005 201.808L404.889 217.808ZM406.575 214.989C406.502 214.105 406.603 213.43 406.625 213.278C406.662 213.024 406.703 212.843 406.717 212.78C406.747 212.652 406.761 212.616 406.725 212.736C406.658 212.96 406.535 213.336 406.334 213.929C405.961 215.034 405.377 216.722 404.779 218.561C403.608 222.162 402.113 227.147 401.534 231.565L417.398 233.645C417.77 230.81 418.847 227.04 419.995 223.508C420.556 221.781 421.068 220.307 421.494 219.047C421.693 218.458 421.895 217.851 422.048 217.339C422.123 217.092 422.221 216.749 422.306 216.384C422.348 216.202 422.409 215.918 422.458 215.58C422.493 215.344 422.598 214.603 422.521 213.672L406.575 214.989ZM401.534 231.562C400.413 240.085 401.556 244.963 402.283 250.589L418.151 248.539C417.305 241.991 416.614 239.602 417.398 233.648L401.534 231.562ZM402.284 250.596C402.793 254.512 404.442 258.518 406.079 262.013C407.721 265.518 409.92 269.643 411.767 273.327L426.069 266.153C423.922 261.872 422.109 258.515 420.568 255.226C419.022 251.925 418.318 249.826 418.15 248.532L402.284 250.596ZM422.455 276.915C432.36 272.033 444.002 268.754 457.712 268.685L457.632 252.685C441.299 252.767 427.278 256.699 415.381 262.564L422.455 276.915ZM457.718 268.685C463.759 268.65 469.96 269.293 472.464 270.075L477.229 254.801C472.272 253.254 464.026 252.648 457.626 252.685L457.718 268.685ZM482.846 262.438V142.61H466.846V262.438H482.846ZM482.846 142.61C482.846 131.408 477.083 120.919 467.188 115.215L459.197 129.077C463.945 131.813 466.846 136.904 466.846 142.61H482.846ZM467.196 115.22L271.723 2.24007L263.717 16.0927L459.19 129.072L467.196 115.22ZM271.722 2.23903C261.936 -3.41318 249.935 -3.41271 240.149 2.23862L248.151 16.0941C252.986 13.3018 258.886 13.3023 263.719 16.0937L271.722 2.23903ZM240.14 2.24403L45.2066 115.169L53.2268 129.014L248.16 16.0887L240.14 2.24403ZM45.216 115.164C35.0955 121.008 30 131.668 30 142.557H46C46 136.565 48.7168 131.618 53.2175 129.019L45.216 115.164ZM30 142.557V368.613H46V142.557H30ZM30 368.613C30 379.517 35.1308 390.167 45.2242 396.003L53.2331 382.152C48.7292 379.548 46 374.59 46 368.613H30ZM45.221 396.001L240.468 509.015L248.484 495.168L53.2363 382.154L45.221 396.001ZM240.465 509.013C250.255 514.686 262.179 514.686 271.968 509.013L263.946 495.17C259.118 497.967 253.315 497.967 248.487 495.17L240.465 509.013ZM271.964 509.016L467.3 396.002L459.287 382.153L263.951 495.167L271.964 509.016ZM467.303 396C477.212 390.26 482.86 379.752 482.86 368.613H466.86C466.86 374.352 463.992 379.427 459.284 382.155L467.303 396ZM482.86 368.613V277.255H466.86V368.613H482.86ZM477.121 269.581C473.949 268.647 469.751 268.012 466.146 267.592L464.295 283.485C467.751 283.887 470.812 284.402 472.6 284.929L477.121 269.581ZM248.959 258.373C243.937 263.998 236.284 277.109 232.647 288.139L247.842 293.15C250.89 283.906 257.531 272.796 260.894 269.028L248.959 258.373ZM232.648 288.135C228.987 299.22 227.935 310.387 228.471 319.125C228.737 323.463 229.413 327.531 230.551 330.836C231.115 332.474 231.898 334.239 233.028 335.807C234.096 337.288 236.05 339.381 239.162 340.194L243.203 324.712C245.139 325.218 245.973 326.403 246.008 326.452C246.106 326.588 245.944 326.395 245.68 325.628C245.162 324.124 244.652 321.59 244.441 318.146C244.022 311.318 244.854 302.195 247.84 293.153L232.648 288.135ZM239.156 340.192C243.393 341.301 246.735 339.309 248.36 338.022C250.074 336.665 251.43 334.919 252.456 333.408C254.56 330.305 256.571 326.207 258.352 322.183C261.826 314.337 265.534 304.074 267.408 299.503L252.605 293.431C250.164 299.382 247.208 307.831 243.722 315.707C242.023 319.545 240.48 322.56 239.215 324.426C238.555 325.399 238.272 325.601 238.425 325.481C238.487 325.431 240.346 323.964 243.209 324.714L239.156 340.192ZM267.408 299.505C268.86 295.966 272.243 286.784 274.983 277.965C276.35 273.563 277.621 269.051 278.403 265.283C278.789 263.42 279.106 261.508 279.212 259.772C279.265 258.905 279.278 257.889 279.159 256.842C279.052 255.902 278.774 254.291 277.815 252.663L264.032 260.789C263.36 259.65 263.27 258.725 263.261 258.646C263.24 258.46 263.261 258.48 263.241 258.799C263.202 259.436 263.054 260.501 262.737 262.033C262.11 265.053 261.015 268.996 259.703 273.218C257.085 281.645 253.858 290.379 252.606 293.429L267.408 299.505ZM277.818 252.669C275.685 249.044 272.102 247.705 269.22 247.486C266.508 247.28 263.915 247.955 261.792 248.81C257.459 250.555 252.939 253.911 248.957 258.375L260.896 269.026C263.661 265.927 266.241 264.267 267.769 263.652C268.577 263.326 268.606 263.485 268.008 263.44C267.239 263.382 265.262 262.88 264.029 260.784L277.818 252.669ZM330.973 331.537C325.475 325.725 325.474 325.726 325.473 325.727C325.473 325.727 325.472 325.728 325.471 325.729C325.47 325.73 325.468 325.731 325.467 325.733C325.464 325.736 325.461 325.738 325.458 325.741C325.452 325.747 325.445 325.754 325.438 325.76C325.424 325.773 325.409 325.788 325.392 325.805C325.358 325.838 325.318 325.877 325.273 325.922C325.183 326.011 325.068 326.128 324.938 326.267C324.7 326.52 324.309 326.955 323.911 327.503C323.634 327.884 322.79 329.06 322.357 330.716C322.123 331.607 321.856 333.206 322.374 335.09C322.958 337.219 324.329 338.918 326.053 339.97L334.387 326.311C335.967 327.276 337.255 328.86 337.802 330.852C338.283 332.601 338.025 334.045 337.835 334.769C337.636 335.53 337.361 336.071 337.22 336.328C337.063 336.613 336.924 336.813 336.852 336.912C336.713 337.103 336.618 337.202 336.611 337.209C336.596 337.225 336.58 337.242 336.561 337.261C336.551 337.271 336.539 337.283 336.524 337.297C336.517 337.304 336.509 337.312 336.5 337.32C336.495 337.325 336.491 337.329 336.486 337.334C336.483 337.336 336.481 337.339 336.478 337.341C336.477 337.342 336.476 337.343 336.474 337.345C336.474 337.345 336.473 337.346 336.472 337.347C336.471 337.347 336.47 337.348 330.973 331.537ZM326.115 340.007C328.043 341.16 329.948 341.323 331.125 341.298C332.338 341.273 333.394 341.038 334.153 340.822C335.663 340.393 337.094 339.72 338.198 339.145L330.805 324.956C330.081 325.333 329.761 325.437 329.781 325.431C329.794 325.427 330.172 325.315 330.795 325.302C331.381 325.29 332.785 325.354 334.325 326.274L326.115 340.007ZM338.763 338.821C341.55 337.067 346.481 333.759 350.772 328.999C355.056 324.247 359.282 317.391 359.3 308.683L343.3 308.649C343.293 311.953 341.705 315.162 338.889 318.286C336.079 321.402 332.624 323.78 330.24 325.28L338.763 338.821ZM359.3 308.666C359.3 308.101 359.278 307.583 359.246 307.09L343.28 308.14C343.295 308.374 343.3 308.532 343.3 308.666H359.3ZM344.899 302.767C342.257 306.235 339.82 309.325 337.712 311.952L350.192 321.965C352.364 319.257 354.886 316.06 357.626 312.463L344.899 302.767ZM337.718 311.945C336.061 314.006 332.972 317.481 330.164 320.58C328.788 322.099 327.522 323.479 326.601 324.48C326.141 324.98 325.767 325.384 325.509 325.663C325.38 325.802 325.28 325.91 325.213 325.983C325.179 326.019 325.154 326.046 325.137 326.064C325.129 326.073 325.122 326.08 325.118 326.085C325.116 326.087 325.115 326.088 325.114 326.089C325.113 326.09 325.113 326.09 325.113 326.09C325.113 326.09 325.113 326.09 325.113 326.09C325.113 326.09 325.113 326.09 330.973 331.537C336.833 336.983 336.833 336.983 336.833 336.983C336.833 336.983 336.833 336.982 336.833 336.982C336.834 336.982 336.834 336.981 336.835 336.98C336.836 336.979 336.838 336.977 336.841 336.974C336.846 336.969 336.853 336.961 336.862 336.951C336.881 336.931 336.908 336.902 336.944 336.863C337.015 336.787 337.119 336.674 337.252 336.531C337.518 336.243 337.901 335.828 338.372 335.316C339.314 334.294 340.608 332.882 342.02 331.324C344.787 328.27 348.188 324.457 350.187 321.971L337.718 311.945Z" fill="black" mask="url(#path-1-inside-1_1_85)"/>
</g>
<defs>
<clipPath id="clip0_1_85">
<rect width="437" height="500" fill="white" transform="translate(38 6)"/>
</clipPath>
</defs>
</svg>
